# xmcd
#
# Track frame offsets:
#	150
#	16206
#	34539
#	52220
#	70548
#
# Disc length: 1054 seconds
#
# Revision: 1
# Processed by: cddbd v1.5.1PL2 Copyright (c) Steve Scherf et al.
# Submitted via: audiograbber 1.83.01
#
DISCID=37041c05
DTITLE=Daisycutters - The State I'm In
DYEAR=2001
DGENRE=Pop
TTITLE0=The State I'm In
TTITLE1=It's A Shame About Us
TTITLE2=Hilarious (live)
TTITLE3=Kiss Me Stupid (live)
TTITLE4=Words Get In The Way
EXTD=YEAR: 2002 ID3G: 13
EXTT0=
EXTT1=
EXTT2=
EXTT3=
EXTT4=
PLAYORDER=
